<?xml version="1.0" standalone="no"?>
<!DOCTYPE svg PUBLIC "-//W3C//DTD SVG 20010904//EN"
 "http://www.w3.org/TR/2001/REC-SVG-20010904/DTD/svg10.dtd">
<svg version="1.0" xmlns="http://www.w3.org/2000/svg"
 width="64px" height="64px" viewBox="0 0 1024.000000 1024.000000"
 preserveAspectRatio="xMidYMid meet">

<g transform="translate(0.000000,1024.000000) scale(0.100000,-0.100000)"
fill="#6c3adf" stroke="none">
<path d="M6200 7382 c0 -4 -48 -13 -107 -20 -59 -6 -109 -16 -112 -21 -3 -5
-25 -14 -48 -20 -24 -7 -43 -16 -43 -21 0 -4 -13 -11 -29 -15 -28 -6 -55 -23
-92 -57 -11 -10 -23 -18 -27 -18 -10 0 -127 -115 -159 -157 -13 -15 -23 -34
-23 -40 0 -7 -5 -13 -11 -13 -5 0 -15 -13 -20 -30 -6 -16 -15 -30 -19 -30 -5
0 -14 -22 -21 -50 -7 -27 -16 -50 -20 -50 -4 0 -13 -33 -20 -72 -7 -40 -17
-76 -23 -80 -8 -5 -12 -570 -14 -1898 l-2 -1891 280 3 c181 2 283 7 288 13 4
6 26 17 50 23 23 7 42 16 42 20 0 4 14 14 32 21 39 17 147 124 168 166 8 17
20 36 27 43 6 7 15 34 19 60 4 26 12 50 18 54 8 5 12 207 16 695 l5 688 35 3
c19 2 38 9 42 15 6 9 8 9 8 0 0 -7 7 -13 15 -13 8 0 15 5 15 10 0 6 7 10 15
10 8 0 15 -4 15 -10 0 -5 11 -10 25 -10 14 0 25 5 25 10 0 6 7 10 15 10 8 0
15 -6 15 -12 0 -9 4 -8 10 2 6 10 10 11 10 3 0 -7 9 -13 20 -13 11 0 20 5 20
10 0 14 27 12 34 -2 5 -10 7 -10 12 0 7 16 71 16 77 0 4 -10 6 -10 6 0 1 7 16
12 40 12 22 0 42 -6 45 -12 5 -10 7 -10 12 0 7 14 104 17 104 2 0 -5 16 -10
35 -10 21 0 35 5 35 13 0 9 3 8 9 -2 7 -11 9 -11 14 0 5 12 7 12 15 0 8 -11
10 -11 15 0 4 10 6 10 6 2 1 -16 81 -18 81 -3 0 14 27 12 33 -2 4 -10 6 -10 6
0 1 14 31 17 31 2 0 -14 27 -12 34 3 5 10 7 10 12 0 7 -17 31 -17 37 0 4 10 6
10 6 0 1 -16 81 -18 81 -3 0 6 7 10 15 10 8 0 15 -4 15 -10 0 -5 9 -10 20 -10
11 0 20 5 20 10 0 14 37 12 43 -2 4 -10 6 -10 6 0 1 6 7 12 15 12 8 0 17 -6
19 -12 4 -10 8 -10 14 -2 4 6 34 14 65 18 33 4 66 15 79 27 12 10 25 19 29 19
3 0 12 16 20 35 8 19 17 35 22 35 4 0 8 160 8 355 0 342 -1 356 -20 375 -20
20 -33 20 -730 20 l-710 0 0 420 c0 417 0 419 22 439 21 20 35 21 852 23 l831
3 33 30 32 29 0 429 c0 283 -3 426 -10 422 -5 -3 -10 -1 -10 4 0 8 -288 11
-950 11 -522 0 -950 -4 -950 -8z"/>
<path d="M3815 7370 c-944 -5 -1034 -7 -1081 -23 -324 -109 -532 -349 -588
-676 -14 -84 -16 -294 -16 -1953 l0 -1858 253 0 c279 0 315 5 416 63 81 45
172 141 209 217 63 130 62 119 62 846 0 531 3 664 13 672 9 8 213 12 653 14
l639 3 58 28 c44 22 63 38 80 70 22 41 22 49 22 400 0 343 -1 359 -19 373 -17
12 -133 14 -733 14 l-713 0 0 420 0 421 25 24 24 25 816 0 c881 0 864 -1 899
53 14 21 16 74 14 448 l-3 424 -1030 -5z"/>
</g>
</svg>
